<svg width="593" height="17" viewBox="0 0 593 17" fill="none" xmlns="http://www.w3.org/2000/svg">
<path d="M6.97701 4.72699C6.326 4.72699 5.82299 4.95301 5.46899 5.40601C5.11999 5.85901 4.94501 6.487 4.94501 7.289C4.94501 8.164 5.109 8.81201 5.438 9.23401C5.771 9.65601 6.279 9.867 6.961 9.867C7.409 9.867 7.95799 9.74999 8.60899 9.51599V10.484C8.35899 10.589 8.102 10.677 7.836 10.75C7.576 10.823 7.26299 10.859 6.89799 10.859C5.88799 10.859 5.11201 10.547 4.57001 9.922C4.02901 9.292 3.758 8.414 3.758 7.289C3.758 6.201 4.044 5.33601 4.617 4.69501C5.195 4.05501 5.98201 3.73401 6.97701 3.73401C7.643 3.73401 8.284 3.891 8.89799 4.203L8.44501 5.125C7.88301 4.859 7.393 4.72699 6.97701 4.72699ZM0.781006 7.289C0.781006 6.247 1.042 5.27101 1.562 4.35901C2.083 3.44801 2.799 2.729 3.711 2.203C4.622 1.677 5.60401 1.414 6.65601 1.414C7.69801 1.414 8.674 1.67401 9.586 2.19501C10.497 2.71601 11.216 3.43199 11.742 4.34399C12.268 5.25499 12.531 6.237 12.531 7.289C12.531 8.315 12.279 9.27899 11.773 10.18C11.268 11.081 10.56 11.802 9.64799 12.344C8.73699 12.885 7.74001 13.156 6.65601 13.156C5.57801 13.156 4.583 12.888 3.672 12.352C2.76 11.81 2.049 11.089 1.539 10.188C1.034 9.28599 0.781006 8.32 0.781006 7.289ZM1.60201 7.289C1.60201 8.19 1.82801 9.03401 2.28101 9.82001C2.73401 10.602 3.352 11.219 4.133 11.672C4.919 12.12 5.76001 12.344 6.65601 12.344C7.56201 12.344 8.40399 12.117 9.17999 11.664C9.95599 11.211 10.57 10.599 11.023 9.828C11.482 9.052 11.711 8.206 11.711 7.289C11.711 6.383 11.484 5.54199 11.031 4.76599C10.578 3.98999 9.964 3.375 9.188 2.922C8.417 2.464 7.57301 2.23401 6.65601 2.23401C5.75001 2.23401 4.909 2.461 4.133 2.914C3.357 3.367 2.74001 3.982 2.28101 4.758C1.82801 5.529 1.60201 6.372 1.60201 7.289ZM22.266 13.156C21.026 13.156 20.065 12.776 19.383 12.016C18.706 11.25 18.367 10.169 18.367 8.77301C18.367 7.34101 18.711 6.234 19.398 5.453C20.091 4.672 21.076 4.28101 22.352 4.28101C22.763 4.28101 23.174 4.326 23.586 4.414C23.997 4.503 24.32 4.60699 24.555 4.72699L24.156 5.828C23.87 5.714 23.557 5.62 23.219 5.547C22.88 5.469 22.581 5.42999 22.32 5.42999C20.581 5.42999 19.711 6.539 19.711 8.758C19.711 9.81 19.922 10.617 20.344 11.18C20.771 11.742 21.401 12.023 22.234 12.023C22.948 12.023 23.68 11.87 24.43 11.562V12.711C23.857 13.008 23.135 13.156 22.266 13.156ZM33.859 8.711C33.859 10.107 33.508 11.198 32.805 11.984C32.102 12.766 31.13 13.156 29.891 13.156C29.125 13.156 28.445 12.977 27.852 12.617C27.258 12.258 26.799 11.742 26.477 11.07C26.154 10.398 25.992 9.612 25.992 8.711C25.992 7.315 26.341 6.229 27.039 5.453C27.737 4.672 28.706 4.28101 29.945 4.28101C31.143 4.28101 32.094 4.67999 32.797 5.47699C33.505 6.27299 33.859 7.352 33.859 8.711ZM27.336 8.711C27.336 9.805 27.555 10.638 27.992 11.211C28.43 11.784 29.073 12.07 29.922 12.07C30.771 12.07 31.414 11.786 31.852 11.219C32.294 10.646 32.516 9.81 32.516 8.711C32.516 7.622 32.294 6.79701 31.852 6.23401C31.414 5.66701 30.766 5.383 29.906 5.383C29.057 5.383 28.417 5.66099 27.984 6.21899C27.552 6.77599 27.336 7.607 27.336 8.711ZM40.125 13.156C39.568 13.156 39.057 13.055 38.594 12.852C38.135 12.643 37.75 12.326 37.438 11.898H37.344C37.406 12.398 37.438 12.872 37.438 13.32V16.844H36.141V4.43799H37.195L37.375 5.60901H37.438C37.771 5.14101 38.159 4.80199 38.602 4.59399C39.044 4.38499 39.552 4.28101 40.125 4.28101C41.26 4.28101 42.135 4.66901 42.75 5.44501C43.37 6.22101 43.68 7.31 43.68 8.711C43.68 10.117 43.365 11.211 42.734 11.992C42.109 12.768 41.24 13.156 40.125 13.156ZM39.938 5.383C39.062 5.383 38.43 5.62501 38.039 6.10901C37.648 6.59401 37.448 7.365 37.438 8.422V8.711C37.438 9.914 37.638 10.776 38.039 11.297C38.44 11.812 39.083 12.07 39.969 12.07C40.708 12.07 41.286 11.771 41.703 11.172C42.125 10.573 42.336 9.74701 42.336 8.69501C42.336 7.62801 42.125 6.81 41.703 6.242C41.286 5.669 40.698 5.383 39.938 5.383ZM44.594 4.43799H45.984L47.859 9.32001C48.271 10.435 48.526 11.24 48.625 11.734H48.688C48.755 11.469 48.896 11.016 49.109 10.375C49.328 9.729 50.036 7.74999 51.234 4.43799H52.625L48.945 14.188C48.581 15.151 48.154 15.833 47.664 16.234C47.18 16.641 46.583 16.844 45.875 16.844C45.479 16.844 45.089 16.799 44.703 16.711V15.672C44.99 15.734 45.31 15.766 45.664 15.766C46.555 15.766 47.19 15.266 47.57 14.266L48.047 13.047L44.594 4.43799ZM57.922 4.28101C58.302 4.28101 58.643 4.312 58.945 4.375L58.766 5.578C58.411 5.5 58.099 5.461 57.828 5.461C57.135 5.461 56.542 5.74199 56.047 6.30499C55.557 6.86699 55.312 7.56801 55.312 8.40601V13H54.016V4.43799H55.086L55.234 6.02301H55.297C55.615 5.46601 55.997 5.03601 56.445 4.73401C56.893 4.43201 57.385 4.28101 57.922 4.28101ZM61.844 13H60.547V4.43799H61.844V13ZM60.438 2.117C60.438 1.82 60.51 1.60399 60.656 1.46899C60.802 1.32799 60.984 1.258 61.203 1.258C61.411 1.258 61.591 1.32799 61.742 1.46899C61.893 1.60899 61.969 1.826 61.969 2.117C61.969 2.409 61.893 2.62801 61.742 2.77301C61.591 2.91401 61.411 2.98401 61.203 2.98401C60.984 2.98401 60.802 2.91401 60.656 2.77301C60.51 2.62801 60.438 2.409 60.438 2.117ZM71.602 4.43799V5.258L70.016 5.44501C70.161 5.62801 70.292 5.867 70.406 6.164C70.521 6.456 70.578 6.78601 70.578 7.15601C70.578 7.99501 70.292 8.664 69.719 9.164C69.146 9.664 68.359 9.914 67.359 9.914C67.104 9.914 66.865 9.89299 66.641 9.85199C66.089 10.143 65.812 10.51 65.812 10.953C65.812 11.188 65.909 11.362 66.102 11.477C66.294 11.586 66.625 11.641 67.094 11.641H68.609C69.536 11.641 70.247 11.836 70.742 12.227C71.242 12.617 71.492 13.185 71.492 13.93C71.492 14.878 71.112 15.599 70.352 16.094C69.591 16.594 68.482 16.844 67.023 16.844C65.904 16.844 65.039 16.635 64.43 16.219C63.826 15.802 63.523 15.214 63.523 14.453C63.523 13.932 63.69 13.482 64.023 13.102C64.357 12.721 64.826 12.464 65.43 12.328C65.211 12.229 65.026 12.076 64.875 11.867C64.729 11.659 64.656 11.417 64.656 11.141C64.656 10.828 64.74 10.555 64.906 10.32C65.073 10.086 65.336 9.85899 65.695 9.64099C65.253 9.45799 64.891 9.148 64.609 8.711C64.333 8.273 64.195 7.773 64.195 7.211C64.195 6.273 64.477 5.552 65.039 5.047C65.602 4.536 66.398 4.28101 67.43 4.28101C67.878 4.28101 68.281 4.33299 68.641 4.43799H71.602ZM64.773 14.438C64.773 14.901 64.969 15.253 65.359 15.492C65.75 15.732 66.31 15.852 67.039 15.852C68.128 15.852 68.932 15.688 69.453 15.359C69.979 15.036 70.242 14.596 70.242 14.039C70.242 13.576 70.099 13.253 69.812 13.07C69.526 12.893 68.987 12.805 68.195 12.805H66.641C66.052 12.805 65.594 12.945 65.266 13.227C64.938 13.508 64.773 13.911 64.773 14.438ZM65.477 7.17999C65.477 7.77899 65.646 8.232 65.984 8.539C66.323 8.846 66.794 9 67.398 9C68.664 9 69.297 8.38501 69.297 7.15601C69.297 5.87001 68.656 5.22699 67.375 5.22699C66.766 5.22699 66.297 5.39099 65.969 5.71899C65.641 6.04699 65.477 6.53399 65.477 7.17999ZM79.219 13V7.461C79.219 6.763 79.06 6.24201 78.742 5.89801C78.424 5.55501 77.927 5.383 77.25 5.383C76.349 5.383 75.69 5.628 75.273 6.117C74.862 6.607 74.656 7.40901 74.656 8.52301V13H73.359V0.843994H74.656V4.52301C74.656 4.96601 74.635 5.333 74.594 5.625H74.672C74.927 5.214 75.289 4.89101 75.758 4.65601C76.232 4.41701 76.771 4.297 77.375 4.297C78.422 4.297 79.206 4.547 79.727 5.047C80.253 5.542 80.516 6.331 80.516 7.414V13H79.219ZM85.953 12.086C86.182 12.086 86.404 12.07 86.617 12.039C86.831 12.003 87 11.966 87.125 11.93V12.922C86.984 12.99 86.776 13.044 86.5 13.086C86.229 13.133 85.984 13.156 85.766 13.156C84.109 13.156 83.281 12.284 83.281 10.539V5.44501H82.055V4.82001L83.281 4.28101L83.828 2.453H84.578V4.43799H87.062V5.44501H84.578V10.484C84.578 11 84.701 11.396 84.945 11.672C85.19 11.948 85.526 12.086 85.953 12.086ZM98.602 4.72699C97.951 4.72699 97.448 4.95301 97.094 5.40601C96.745 5.85901 96.57 6.487 96.57 7.289C96.57 8.164 96.734 8.81201 97.062 9.23401C97.396 9.65601 97.904 9.867 98.586 9.867C99.034 9.867 99.583 9.74999 100.234 9.51599V10.484C99.984 10.589 99.727 10.677 99.461 10.75C99.201 10.823 98.888 10.859 98.523 10.859C97.513 10.859 96.737 10.547 96.195 9.922C95.654 9.292 95.383 8.414 95.383 7.289C95.383 6.201 95.669 5.33601 96.242 4.69501C96.82 4.05501 97.607 3.73401 98.602 3.73401C99.268 3.73401 99.909 3.891 100.523 4.203L100.07 5.125C99.508 4.859 99.018 4.72699 98.602 4.72699ZM92.406 7.289C92.406 6.247 92.667 5.27101 93.188 4.35901C93.708 3.44801 94.424 2.729 95.336 2.203C96.247 1.677 97.229 1.414 98.281 1.414C99.323 1.414 100.299 1.67401 101.211 2.19501C102.122 2.71601 102.841 3.43199 103.367 4.34399C103.893 5.25499 104.156 6.237 104.156 7.289C104.156 8.315 103.904 9.27899 103.398 10.18C102.893 11.081 102.185 11.802 101.273 12.344C100.362 12.885 99.365 13.156 98.281 13.156C97.203 13.156 96.208 12.888 95.297 12.352C94.385 11.81 93.674 11.089 93.164 10.188C92.659 9.28599 92.406 8.32 92.406 7.289ZM93.227 7.289C93.227 8.19 93.453 9.03401 93.906 9.82001C94.359 10.602 94.977 11.219 95.758 11.672C96.544 12.12 97.385 12.344 98.281 12.344C99.188 12.344 100.029 12.117 100.805 11.664C101.581 11.211 102.195 10.599 102.648 9.828C103.107 9.052 103.336 8.206 103.336 7.289C103.336 6.383 103.109 5.54199 102.656 4.76599C102.203 3.98999 101.589 3.375 100.812 2.922C100.042 2.464 99.198 2.23401 98.281 2.23401C97.375 2.23401 96.534 2.461 95.758 2.914C94.982 3.367 94.365 3.982 93.906 4.758C93.453 5.529 93.227 6.372 93.227 7.289ZM113.227 13H105.719V11.883L108.727 8.85901C109.643 7.93201 110.247 7.271 110.539 6.875C110.831 6.479 111.049 6.09399 111.195 5.71899C111.341 5.34399 111.414 4.94 111.414 4.508C111.414 3.898 111.229 3.41701 110.859 3.06201C110.49 2.70301 109.977 2.52301 109.32 2.52301C108.846 2.52301 108.396 2.602 107.969 2.758C107.547 2.914 107.076 3.19801 106.555 3.60901L105.867 2.72699C106.919 1.85199 108.065 1.414 109.305 1.414C110.378 1.414 111.219 1.69 111.828 2.242C112.438 2.789 112.742 3.526 112.742 4.453C112.742 5.177 112.539 5.89299 112.133 6.60199C111.727 7.30999 110.966 8.206 109.852 9.289L107.352 11.734V11.797H113.227V13ZM122.445 7.27301C122.445 9.24701 122.133 10.721 121.508 11.695C120.888 12.669 119.938 13.156 118.656 13.156C117.427 13.156 116.492 12.659 115.852 11.664C115.211 10.664 114.891 9.20101 114.891 7.27301C114.891 5.28401 115.201 3.80699 115.82 2.84399C116.44 1.87999 117.385 1.39801 118.656 1.39801C119.896 1.39801 120.836 1.90101 121.477 2.90601C122.122 3.91101 122.445 5.36701 122.445 7.27301ZM116.203 7.27301C116.203 8.93501 116.398 10.146 116.789 10.906C117.18 11.661 117.802 12.039 118.656 12.039C119.521 12.039 120.146 11.656 120.531 10.891C120.922 10.12 121.117 8.91401 121.117 7.27301C121.117 5.63301 120.922 4.432 120.531 3.672C120.146 2.906 119.521 2.52301 118.656 2.52301C117.802 2.52301 117.18 2.90101 116.789 3.65601C116.398 4.40601 116.203 5.61201 116.203 7.27301ZM128.836 13H127.57V4.85901C127.57 4.18201 127.591 3.54199 127.633 2.93799C127.523 3.04699 127.401 3.16101 127.266 3.28101C127.13 3.40101 126.51 3.90899 125.406 4.80499L124.719 3.914L127.742 1.578H128.836V13ZM136.969 1.414C138.01 1.414 138.836 1.65599 139.445 2.14099C140.055 2.62499 140.359 3.29401 140.359 4.14801C140.359 4.71101 140.185 5.22399 139.836 5.68799C139.487 6.15099 138.93 6.573 138.164 6.953C139.091 7.396 139.75 7.86199 140.141 8.35199C140.531 8.83599 140.727 9.398 140.727 10.039C140.727 10.987 140.396 11.745 139.734 12.312C139.073 12.875 138.167 13.156 137.016 13.156C135.797 13.156 134.859 12.891 134.203 12.359C133.547 11.823 133.219 11.065 133.219 10.086C133.219 8.779 134.016 7.76001 135.609 7.03101C134.891 6.62501 134.375 6.18799 134.062 5.71899C133.75 5.24499 133.594 4.716 133.594 4.133C133.594 3.305 133.898 2.64601 134.508 2.15601C135.122 1.66101 135.943 1.414 136.969 1.414ZM134.5 10.117C134.5 10.742 134.716 11.229 135.148 11.578C135.586 11.927 136.198 12.102 136.984 12.102C137.76 12.102 138.365 11.919 138.797 11.555C139.229 11.19 139.445 10.69 139.445 10.055C139.445 9.54899 139.242 9.102 138.836 8.711C138.43 8.315 137.721 7.93201 136.711 7.56201C135.935 7.89601 135.372 8.266 135.023 8.672C134.674 9.073 134.5 9.555 134.5 10.117ZM136.953 2.46899C136.302 2.46899 135.792 2.62499 135.422 2.93799C135.052 3.24999 134.867 3.66699 134.867 4.18799C134.867 4.66699 135.021 5.078 135.328 5.422C135.635 5.766 136.203 6.109 137.031 6.453C137.776 6.141 138.302 5.80501 138.609 5.44501C138.922 5.08601 139.078 4.66699 139.078 4.18799C139.078 3.66099 138.888 3.24499 138.508 2.93799C138.133 2.62499 137.615 2.46899 136.953 2.46899ZM142.219 9.30499V8.117H146.055V9.30499H142.219ZM155.008 13H147.5V11.883L150.508 8.85901C151.424 7.93201 152.029 7.271 152.32 6.875C152.612 6.479 152.831 6.09399 152.977 5.71899C153.122 5.34399 153.195 4.94 153.195 4.508C153.195 3.898 153.01 3.41701 152.641 3.06201C152.271 2.70301 151.758 2.52301 151.102 2.52301C150.628 2.52301 150.177 2.602 149.75 2.758C149.328 2.914 148.857 3.19801 148.336 3.60901L147.648 2.72699C148.701 1.85199 149.846 1.414 151.086 1.414C152.159 1.414 153 1.69 153.609 2.242C154.219 2.789 154.523 3.526 154.523 4.453C154.523 5.177 154.32 5.89299 153.914 6.60199C153.508 7.30999 152.747 8.206 151.633 9.289L149.133 11.734V11.797H155.008V13ZM164.227 7.27301C164.227 9.24701 163.914 10.721 163.289 11.695C162.669 12.669 161.719 13.156 160.438 13.156C159.208 13.156 158.273 12.659 157.633 11.664C156.992 10.664 156.672 9.20101 156.672 7.27301C156.672 5.28401 156.982 3.80699 157.602 2.84399C158.221 1.87999 159.167 1.39801 160.438 1.39801C161.677 1.39801 162.617 1.90101 163.258 2.90601C163.904 3.91101 164.227 5.36701 164.227 7.27301ZM157.984 7.27301C157.984 8.93501 158.18 10.146 158.57 10.906C158.961 11.661 159.583 12.039 160.438 12.039C161.302 12.039 161.927 11.656 162.312 10.891C162.703 10.12 162.898 8.91401 162.898 7.27301C162.898 5.63301 162.703 4.432 162.312 3.672C161.927 2.906 161.302 2.52301 160.438 2.52301C159.583 2.52301 158.961 2.90101 158.57 3.65601C158.18 4.40601 157.984 5.61201 157.984 7.27301ZM173.32 13H165.812V11.883L168.82 8.85901C169.737 7.93201 170.341 7.271 170.633 6.875C170.924 6.479 171.143 6.09399 171.289 5.71899C171.435 5.34399 171.508 4.94 171.508 4.508C171.508 3.898 171.323 3.41701 170.953 3.06201C170.583 2.70301 170.07 2.52301 169.414 2.52301C168.94 2.52301 168.49 2.602 168.062 2.758C167.641 2.914 167.169 3.19801 166.648 3.60901L165.961 2.72699C167.013 1.85199 168.159 1.414 169.398 1.414C170.471 1.414 171.312 1.69 171.922 2.242C172.531 2.789 172.836 3.526 172.836 4.453C172.836 5.177 172.633 5.89299 172.227 6.60199C171.82 7.30999 171.06 8.206 169.945 9.289L167.445 11.734V11.797H173.32V13ZM182.539 7.27301C182.539 9.24701 182.227 10.721 181.602 11.695C180.982 12.669 180.031 13.156 178.75 13.156C177.521 13.156 176.586 12.659 175.945 11.664C175.305 10.664 174.984 9.20101 174.984 7.27301C174.984 5.28401 175.294 3.80699 175.914 2.84399C176.534 1.87999 177.479 1.39801 178.75 1.39801C179.99 1.39801 180.93 1.90101 181.57 2.90601C182.216 3.91101 182.539 5.36701 182.539 7.27301ZM176.297 7.27301C176.297 8.93501 176.492 10.146 176.883 10.906C177.273 11.661 177.896 12.039 178.75 12.039C179.615 12.039 180.24 11.656 180.625 10.891C181.016 10.12 181.211 8.91401 181.211 7.27301C181.211 5.63301 181.016 4.432 180.625 3.672C180.24 2.906 179.615 2.52301 178.75 2.52301C177.896 2.52301 177.273 2.90101 176.883 3.65601C176.492 4.40601 176.297 5.61201 176.297 7.27301ZM196.312 4.90601C196.312 6.06201 195.917 6.953 195.125 7.578C194.339 8.198 193.211 8.508 191.742 8.508H190.398V13H189.07V1.578H192.031C194.885 1.578 196.312 2.68801 196.312 4.90601ZM190.398 7.367H191.594C192.771 7.367 193.622 7.177 194.148 6.797C194.674 6.417 194.938 5.80699 194.938 4.96899C194.938 4.21399 194.69 3.65101 194.195 3.28101C193.701 2.91101 192.93 2.72699 191.883 2.72699H190.398V7.367ZM202.422 4.28101C202.802 4.28101 203.143 4.312 203.445 4.375L203.266 5.578C202.911 5.5 202.599 5.461 202.328 5.461C201.635 5.461 201.042 5.74199 200.547 6.30499C200.057 6.86699 199.812 7.56801 199.812 8.40601V13H198.516V4.43799H199.586L199.734 6.02301H199.797C200.115 5.46601 200.497 5.03601 200.945 4.73401C201.393 4.43201 201.885 4.28101 202.422 4.28101ZM212.438 8.711C212.438 10.107 212.086 11.198 211.383 11.984C210.68 12.766 209.708 13.156 208.469 13.156C207.703 13.156 207.023 12.977 206.43 12.617C205.836 12.258 205.378 11.742 205.055 11.07C204.732 10.398 204.57 9.612 204.57 8.711C204.57 7.315 204.919 6.229 205.617 5.453C206.315 4.672 207.284 4.28101 208.523 4.28101C209.721 4.28101 210.672 4.67999 211.375 5.47699C212.083 6.27299 212.438 7.352 212.438 8.711ZM205.914 8.711C205.914 9.805 206.133 10.638 206.57 11.211C207.008 11.784 207.651 12.07 208.5 12.07C209.349 12.07 209.992 11.786 210.43 11.219C210.872 10.646 211.094 9.81 211.094 8.711C211.094 7.622 210.872 6.79701 210.43 6.23401C209.992 5.66701 209.344 5.383 208.484 5.383C207.635 5.383 206.995 5.66099 206.562 6.21899C206.13 6.77599 205.914 7.607 205.914 8.711ZM218.703 13.156C218.146 13.156 217.635 13.055 217.172 12.852C216.714 12.643 216.328 12.326 216.016 11.898H215.922C215.984 12.398 216.016 12.872 216.016 13.32V16.844H214.719V4.43799H215.773L215.953 5.60901H216.016C216.349 5.14101 216.737 4.80199 217.18 4.59399C217.622 4.38499 218.13 4.28101 218.703 4.28101C219.839 4.28101 220.714 4.66901 221.328 5.44501C221.948 6.22101 222.258 7.31 222.258 8.711C222.258 10.117 221.943 11.211 221.312 11.992C220.688 12.768 219.818 13.156 218.703 13.156ZM218.516 5.383C217.641 5.383 217.008 5.62501 216.617 6.10901C216.227 6.59401 216.026 7.365 216.016 8.422V8.711C216.016 9.914 216.216 10.776 216.617 11.297C217.018 11.812 217.661 12.07 218.547 12.07C219.286 12.07 219.865 11.771 220.281 11.172C220.703 10.573 220.914 9.74701 220.914 8.69501C220.914 7.62801 220.703 6.81 220.281 6.242C219.865 5.669 219.276 5.383 218.516 5.383ZM228.148 13.156C226.883 13.156 225.883 12.771 225.148 12C224.419 11.229 224.055 10.159 224.055 8.789C224.055 7.409 224.393 6.312 225.07 5.5C225.753 4.688 226.667 4.28101 227.812 4.28101C228.885 4.28101 229.734 4.63499 230.359 5.34399C230.984 6.04699 231.297 6.977 231.297 8.133V8.953H225.398C225.424 9.958 225.677 10.721 226.156 11.242C226.641 11.763 227.32 12.023 228.195 12.023C229.117 12.023 230.029 11.831 230.93 11.445V12.602C230.471 12.799 230.036 12.94 229.625 13.023C229.219 13.112 228.727 13.156 228.148 13.156ZM227.797 5.367C227.109 5.367 226.56 5.591 226.148 6.039C225.742 6.487 225.503 7.10701 225.43 7.89801H229.906C229.906 7.08101 229.724 6.45601 229.359 6.02301C228.995 5.58601 228.474 5.367 227.797 5.367ZM237.422 4.28101C237.802 4.28101 238.143 4.312 238.445 4.375L238.266 5.578C237.911 5.5 237.599 5.461 237.328 5.461C236.635 5.461 236.042 5.74199 235.547 6.30499C235.057 6.86699 234.812 7.56801 234.812 8.40601V13H233.516V4.43799H234.586L234.734 6.02301H234.797C235.115 5.46601 235.497 5.03601 235.945 4.73401C236.393 4.43201 236.885 4.28101 237.422 4.28101ZM242.812 12.086C243.042 12.086 243.263 12.07 243.477 12.039C243.69 12.003 243.859 11.966 243.984 11.93V12.922C243.844 12.99 243.635 13.044 243.359 13.086C243.089 13.133 242.844 13.156 242.625 13.156C240.969 13.156 240.141 12.284 240.141 10.539V5.44501H238.914V4.82001L240.141 4.28101L240.688 2.453H241.438V4.43799H243.922V5.44501H241.438V10.484C241.438 11 241.56 11.396 241.805 11.672C242.049 11.948 242.385 12.086 242.812 12.086ZM244.344 4.43799H245.734L247.609 9.32001C248.021 10.435 248.276 11.24 248.375 11.734H248.438C248.505 11.469 248.646 11.016 248.859 10.375C249.078 9.729 249.786 7.74999 250.984 4.43799H252.375L248.695 14.188C248.331 15.151 247.904 15.833 247.414 16.234C246.93 16.641 246.333 16.844 245.625 16.844C245.229 16.844 244.839 16.799 244.453 16.711V15.672C244.74 15.734 245.06 15.766 245.414 15.766C246.305 15.766 246.94 15.266 247.32 14.266L247.797 13.047L244.344 4.43799ZM265.359 4.90601C265.359 6.06201 264.964 6.953 264.172 7.578C263.385 8.198 262.258 8.508 260.789 8.508H259.445V13H258.117V1.578H261.078C263.932 1.578 265.359 2.68801 265.359 4.90601ZM259.445 7.367H260.641C261.818 7.367 262.669 7.177 263.195 6.797C263.721 6.417 263.984 5.80699 263.984 4.96899C263.984 4.21399 263.737 3.65101 263.242 3.28101C262.747 2.91101 261.977 2.72699 260.93 2.72699H259.445V7.367ZM274.953 8.711C274.953 10.107 274.602 11.198 273.898 11.984C273.195 12.766 272.224 13.156 270.984 13.156C270.219 13.156 269.539 12.977 268.945 12.617C268.352 12.258 267.893 11.742 267.57 11.07C267.247 10.398 267.086 9.612 267.086 8.711C267.086 7.315 267.435 6.229 268.133 5.453C268.831 4.672 269.799 4.28101 271.039 4.28101C272.237 4.28101 273.188 4.67999 273.891 5.47699C274.599 6.27299 274.953 7.352 274.953 8.711ZM268.43 8.711C268.43 9.805 268.648 10.638 269.086 11.211C269.523 11.784 270.167 12.07 271.016 12.07C271.865 12.07 272.508 11.786 272.945 11.219C273.388 10.646 273.609 9.81 273.609 8.711C273.609 7.622 273.388 6.79701 272.945 6.23401C272.508 5.66701 271.859 5.383 271 5.383C270.151 5.383 269.51 5.66099 269.078 6.21899C268.646 6.77599 268.43 7.607 268.43 8.711ZM281.141 4.28101C281.521 4.28101 281.862 4.312 282.164 4.375L281.984 5.578C281.63 5.5 281.318 5.461 281.047 5.461C280.354 5.461 279.76 5.74199 279.266 6.30499C278.776 6.86699 278.531 7.56801 278.531 8.40601V13H277.234V4.43799H278.305L278.453 6.02301H278.516C278.833 5.46601 279.216 5.03601 279.664 4.73401C280.112 4.43201 280.604 4.28101 281.141 4.28101ZM286.531 12.086C286.76 12.086 286.982 12.07 287.195 12.039C287.409 12.003 287.578 11.966 287.703 11.93V12.922C287.562 12.99 287.354 13.044 287.078 13.086C286.807 13.133 286.562 13.156 286.344 13.156C284.688 13.156 283.859 12.284 283.859 10.539V5.44501H282.633V4.82001L283.859 4.28101L284.406 2.453H285.156V4.43799H287.641V5.44501H285.156V10.484C285.156 11 285.279 11.396 285.523 11.672C285.768 11.948 286.104 12.086 286.531 12.086ZM294.688 13L294.43 11.781H294.367C293.94 12.318 293.513 12.682 293.086 12.875C292.664 13.062 292.135 13.156 291.5 13.156C290.651 13.156 289.984 12.938 289.5 12.5C289.021 12.062 288.781 11.44 288.781 10.633C288.781 8.904 290.164 7.997 292.93 7.914L294.383 7.867V7.336C294.383 6.664 294.237 6.16899 293.945 5.85199C293.659 5.52899 293.198 5.367 292.562 5.367C291.849 5.367 291.042 5.58601 290.141 6.02301L289.742 5.03101C290.164 4.80201 290.625 4.622 291.125 4.492C291.63 4.362 292.135 4.297 292.641 4.297C293.661 4.297 294.417 4.52299 294.906 4.97699C295.401 5.42999 295.648 6.15601 295.648 7.15601V13H294.688ZM291.758 12.086C292.565 12.086 293.198 11.865 293.656 11.422C294.12 10.979 294.352 10.359 294.352 9.56201V8.789L293.055 8.84399C292.023 8.87999 291.279 9.042 290.82 9.328C290.367 9.609 290.141 10.049 290.141 10.648C290.141 11.117 290.281 11.474 290.562 11.719C290.849 11.964 291.247 12.086 291.758 12.086ZM299.625 13H298.328V0.843994H299.625V13ZM306.727 13V1.578H308.055V11.797H313.094V13H306.727ZM316.141 13H314.844V4.43799H316.141V13ZM314.734 2.117C314.734 1.82 314.807 1.60399 314.953 1.46899C315.099 1.32799 315.281 1.258 315.5 1.258C315.708 1.258 315.888 1.32799 316.039 1.46899C316.19 1.60899 316.266 1.826 316.266 2.117C316.266 2.409 316.19 2.62801 316.039 2.77301C315.888 2.91401 315.708 2.98401 315.5 2.98401C315.281 2.98401 315.099 2.91401 314.953 2.77301C314.807 2.62801 314.734 2.409 314.734 2.117ZM329.805 13V7.42999C329.805 6.74699 329.659 6.23701 329.367 5.89801C329.076 5.55501 328.622 5.383 328.008 5.383C327.201 5.383 326.604 5.615 326.219 6.078C325.833 6.542 325.641 7.25499 325.641 8.21899V13H324.344V7.42999C324.344 6.74699 324.198 6.23701 323.906 5.89801C323.615 5.55501 323.159 5.383 322.539 5.383C321.727 5.383 321.13 5.628 320.75 6.117C320.375 6.602 320.188 7.398 320.188 8.508V13H318.891V4.43799H319.945L320.156 5.60901H320.219C320.464 5.19301 320.807 4.867 321.25 4.633C321.698 4.398 322.198 4.28101 322.75 4.28101C324.089 4.28101 324.964 4.76601 325.375 5.73401H325.438C325.693 5.28601 326.062 4.932 326.547 4.672C327.031 4.411 327.583 4.28101 328.203 4.28101C329.172 4.28101 329.896 4.53101 330.375 5.03101C330.859 5.52601 331.102 6.32 331.102 7.414V13H329.805ZM335.078 13H333.781V4.43799H335.078V13ZM333.672 2.117C333.672 1.82 333.745 1.60399 333.891 1.46899C334.036 1.32799 334.219 1.258 334.438 1.258C334.646 1.258 334.826 1.32799 334.977 1.46899C335.128 1.60899 335.203 1.826 335.203 2.117C335.203 2.409 335.128 2.62801 334.977 2.77301C334.826 2.91401 334.646 2.98401 334.438 2.98401C334.219 2.98401 334.036 2.91401 333.891 2.77301C333.745 2.62801 333.672 2.409 333.672 2.117ZM340.594 12.086C340.823 12.086 341.044 12.07 341.258 12.039C341.471 12.003 341.641 11.966 341.766 11.93V12.922C341.625 12.99 341.417 13.044 341.141 13.086C340.87 13.133 340.625 13.156 340.406 13.156C338.75 13.156 337.922 12.284 337.922 10.539V5.44501H336.695V4.82001L337.922 4.28101L338.469 2.453H339.219V4.43799H341.703V5.44501H339.219V10.484C339.219 11 339.341 11.396 339.586 11.672C339.831 11.948 340.167 12.086 340.594 12.086ZM347.102 13.156C345.836 13.156 344.836 12.771 344.102 12C343.372 11.229 343.008 10.159 343.008 8.789C343.008 7.409 343.346 6.312 344.023 5.5C344.706 4.688 345.62 4.28101 346.766 4.28101C347.839 4.28101 348.688 4.63499 349.312 5.34399C349.938 6.04699 350.25 6.977 350.25 8.133V8.953H344.352C344.378 9.958 344.63 10.721 345.109 11.242C345.594 11.763 346.273 12.023 347.148 12.023C348.07 12.023 348.982 11.831 349.883 11.445V12.602C349.424 12.799 348.99 12.94 348.578 13.023C348.172 13.112 347.68 13.156 347.102 13.156ZM346.75 5.367C346.062 5.367 345.513 5.591 345.102 6.039C344.695 6.487 344.456 7.10701 344.383 7.89801H348.859C348.859 7.08101 348.677 6.45601 348.312 6.02301C347.948 5.58601 347.427 5.367 346.75 5.367ZM358.297 11.852H358.227C357.628 12.721 356.732 13.156 355.539 13.156C354.419 13.156 353.547 12.773 352.922 12.008C352.302 11.242 351.992 10.154 351.992 8.742C351.992 7.331 352.305 6.234 352.93 5.453C353.555 4.672 354.424 4.28101 355.539 4.28101C356.701 4.28101 357.591 4.703 358.211 5.547H358.312L358.258 4.92999L358.227 4.328V0.843994H359.523V13H358.469L358.297 11.852ZM355.703 12.07C356.589 12.07 357.229 11.831 357.625 11.352C358.026 10.867 358.227 10.089 358.227 9.01599V8.742C358.227 7.529 358.023 6.66401 357.617 6.14801C357.216 5.62801 356.573 5.367 355.688 5.367C354.927 5.367 354.344 5.664 353.938 6.258C353.536 6.846 353.336 7.68 353.336 8.758C353.336 9.852 353.536 10.677 353.938 11.234C354.339 11.792 354.927 12.07 355.703 12.07ZM367.961 8.25V13H366.633V1.578H369.766C371.167 1.578 372.201 1.846 372.867 2.383C373.539 2.919 373.875 3.72699 373.875 4.80499C373.875 6.31499 373.109 7.336 371.578 7.867L374.68 13H373.109L370.344 8.25H367.961ZM367.961 7.10901H369.781C370.719 7.10901 371.406 6.92399 371.844 6.55499C372.281 6.17999 372.5 5.62 372.5 4.875C372.5 4.12 372.276 3.576 371.828 3.242C371.385 2.909 370.672 2.742 369.688 2.742H367.961V7.10901ZM382.891 13H376.523V1.578H382.891V2.758H377.852V6.43799H382.586V7.60901H377.852V11.812H382.891V13ZM385.43 13V1.578H386.758V11.797H391.797V13H385.43ZM400.922 13L399.5 9.367H394.922L393.516 13H392.172L396.688 1.53101H397.805L402.297 13H400.922ZM399.086 8.172L397.758 4.633C397.586 4.185 397.409 3.63501 397.227 2.98401C397.112 3.48401 396.948 4.034 396.734 4.633L395.391 8.172H399.086ZM403.867 1.578H407.094C408.609 1.578 409.706 1.805 410.383 2.258C411.06 2.711 411.398 3.42701 411.398 4.40601C411.398 5.08301 411.208 5.643 410.828 6.086C410.453 6.523 409.904 6.80699 409.18 6.93799V7.01599C410.914 7.31199 411.781 8.224 411.781 9.75C411.781 10.771 411.435 11.568 410.742 12.141C410.055 12.714 409.091 13 407.852 13H403.867V1.578ZM405.195 6.46899H407.383C408.32 6.46899 408.995 6.32301 409.406 6.03101C409.818 5.73401 410.023 5.237 410.023 4.539C410.023 3.898 409.794 3.43801 409.336 3.15601C408.878 2.87001 408.148 2.72699 407.148 2.72699H405.195V6.46899ZM405.195 7.59399V11.867H407.578C408.5 11.867 409.193 11.69 409.656 11.336C410.125 10.977 410.359 10.417 410.359 9.65601C410.359 8.94801 410.12 8.42699 409.641 8.09399C409.167 7.75999 408.443 7.59399 407.469 7.59399H405.195ZM413.859 12.172C413.859 11.823 413.938 11.56 414.094 11.383C414.255 11.201 414.484 11.109 414.781 11.109C415.083 11.109 415.318 11.201 415.484 11.383C415.656 11.56 415.742 11.823 415.742 12.172C415.742 12.51 415.656 12.771 415.484 12.953C415.312 13.135 415.078 13.227 414.781 13.227C414.516 13.227 414.294 13.146 414.117 12.984C413.945 12.818 413.859 12.547 413.859 12.172ZM421.734 13.156C420.495 13.156 419.534 12.776 418.852 12.016C418.174 11.25 417.836 10.169 417.836 8.77301C417.836 7.34101 418.18 6.234 418.867 5.453C419.56 4.672 420.544 4.28101 421.82 4.28101C422.232 4.28101 422.643 4.326 423.055 4.414C423.466 4.503 423.789 4.60699 424.023 4.72699L423.625 5.828C423.339 5.714 423.026 5.62 422.688 5.547C422.349 5.469 422.049 5.42999 421.789 5.42999C420.049 5.42999 419.18 6.539 419.18 8.758C419.18 9.81 419.391 10.617 419.812 11.18C420.24 11.742 420.87 12.023 421.703 12.023C422.417 12.023 423.148 11.87 423.898 11.562V12.711C423.326 13.008 422.604 13.156 421.734 13.156ZM433.328 8.711C433.328 10.107 432.977 11.198 432.273 11.984C431.57 12.766 430.599 13.156 429.359 13.156C428.594 13.156 427.914 12.977 427.32 12.617C426.727 12.258 426.268 11.742 425.945 11.07C425.622 10.398 425.461 9.612 425.461 8.711C425.461 7.315 425.81 6.229 426.508 5.453C427.206 4.672 428.174 4.28101 429.414 4.28101C430.612 4.28101 431.562 4.67999 432.266 5.47699C432.974 6.27299 433.328 7.352 433.328 8.711ZM426.805 8.711C426.805 9.805 427.023 10.638 427.461 11.211C427.898 11.784 428.542 12.07 429.391 12.07C430.24 12.07 430.883 11.786 431.32 11.219C431.763 10.646 431.984 9.81 431.984 8.711C431.984 7.622 431.763 6.79701 431.32 6.23401C430.883 5.66701 430.234 5.383 429.375 5.383C428.526 5.383 427.885 5.66099 427.453 6.21899C427.021 6.77599 426.805 7.607 426.805 8.711ZM435.422 12.172C435.422 11.823 435.5 11.56 435.656 11.383C435.818 11.201 436.047 11.109 436.344 11.109C436.646 11.109 436.88 11.201 437.047 11.383C437.219 11.56 437.305 11.823 437.305 12.172C437.305 12.51 437.219 12.771 437.047 12.953C436.875 13.135 436.641 13.227 436.344 13.227C436.078 13.227 435.857 13.146 435.68 12.984C435.508 12.818 435.422 12.547 435.422 12.172ZM445.734 13V7.461C445.734 6.763 445.576 6.24201 445.258 5.89801C444.94 5.55501 444.443 5.383 443.766 5.383C442.87 5.383 442.214 5.62501 441.797 6.10901C441.38 6.59401 441.172 7.393 441.172 8.508V13H439.875V4.43799H440.93L441.141 5.60901H441.203C441.469 5.18801 441.841 4.862 442.32 4.633C442.799 4.398 443.333 4.28101 443.922 4.28101C444.953 4.28101 445.729 4.53101 446.25 5.03101C446.771 5.52601 447.031 6.32 447.031 7.414V13H445.734ZM455.18 13H448.969V12.117L453.641 5.44501H449.258V4.43799H455.062V5.44501L450.453 11.992H455.18V13ZM468.719 13L467.297 9.367H462.719L461.312 13H459.969L464.484 1.53101H465.602L470.094 13H468.719ZM466.883 8.172L465.555 4.633C465.383 4.185 465.206 3.63501 465.023 2.98401C464.909 3.48401 464.745 4.034 464.531 4.633L463.188 8.172H466.883ZM472.766 13H471.469V0.843994H472.766V13ZM476.812 13H475.516V0.843994H476.812V13ZM485.242 8.25V13H483.914V1.578H487.047C488.448 1.578 489.482 1.846 490.148 2.383C490.82 2.919 491.156 3.72699 491.156 4.80499C491.156 6.31499 490.391 7.336 488.859 7.867L491.961 13H490.391L487.625 8.25H485.242ZM485.242 7.10901H487.062C488 7.10901 488.688 6.92399 489.125 6.55499C489.562 6.17999 489.781 5.62 489.781 4.875C489.781 4.12 489.557 3.576 489.109 3.242C488.667 2.909 487.953 2.742 486.969 2.742H485.242V7.10901ZM494.906 13H493.609V4.43799H494.906V13ZM493.5 2.117C493.5 1.82 493.573 1.60399 493.719 1.46899C493.865 1.32799 494.047 1.258 494.266 1.258C494.474 1.258 494.654 1.32799 494.805 1.46899C494.956 1.60899 495.031 1.826 495.031 2.117C495.031 2.409 494.956 2.62801 494.805 2.77301C494.654 2.91401 494.474 2.98401 494.266 2.98401C494.047 2.98401 493.865 2.91401 493.719 2.77301C493.573 2.62801 493.5 2.409 493.5 2.117ZM504.664 4.43799V5.258L503.078 5.44501C503.224 5.62801 503.354 5.867 503.469 6.164C503.583 6.456 503.641 6.78601 503.641 7.15601C503.641 7.99501 503.354 8.664 502.781 9.164C502.208 9.664 501.422 9.914 500.422 9.914C500.167 9.914 499.927 9.89299 499.703 9.85199C499.151 10.143 498.875 10.51 498.875 10.953C498.875 11.188 498.971 11.362 499.164 11.477C499.357 11.586 499.688 11.641 500.156 11.641H501.672C502.599 11.641 503.31 11.836 503.805 12.227C504.305 12.617 504.555 13.185 504.555 13.93C504.555 14.878 504.174 15.599 503.414 16.094C502.654 16.594 501.544 16.844 500.086 16.844C498.966 16.844 498.102 16.635 497.492 16.219C496.888 15.802 496.586 15.214 496.586 14.453C496.586 13.932 496.753 13.482 497.086 13.102C497.419 12.721 497.888 12.464 498.492 12.328C498.273 12.229 498.089 12.076 497.938 11.867C497.792 11.659 497.719 11.417 497.719 11.141C497.719 10.828 497.802 10.555 497.969 10.32C498.135 10.086 498.398 9.85899 498.758 9.64099C498.315 9.45799 497.953 9.148 497.672 8.711C497.396 8.273 497.258 7.773 497.258 7.211C497.258 6.273 497.539 5.552 498.102 5.047C498.664 4.536 499.461 4.28101 500.492 4.28101C500.94 4.28101 501.344 4.33299 501.703 4.43799H504.664ZM497.836 14.438C497.836 14.901 498.031 15.253 498.422 15.492C498.812 15.732 499.372 15.852 500.102 15.852C501.19 15.852 501.995 15.688 502.516 15.359C503.042 15.036 503.305 14.596 503.305 14.039C503.305 13.576 503.161 13.253 502.875 13.07C502.589 12.893 502.049 12.805 501.258 12.805H499.703C499.115 12.805 498.656 12.945 498.328 13.227C498 13.508 497.836 13.911 497.836 14.438ZM498.539 7.17999C498.539 7.77899 498.708 8.232 499.047 8.539C499.385 8.846 499.857 9 500.461 9C501.727 9 502.359 8.38501 502.359 7.15601C502.359 5.87001 501.719 5.22699 500.438 5.22699C499.828 5.22699 499.359 5.39099 499.031 5.71899C498.703 6.04699 498.539 6.53399 498.539 7.17999ZM512.281 13V7.461C512.281 6.763 512.122 6.24201 511.805 5.89801C511.487 5.55501 510.99 5.383 510.312 5.383C509.411 5.383 508.753 5.628 508.336 6.117C507.924 6.607 507.719 7.40901 507.719 8.52301V13H506.422V0.843994H507.719V4.52301C507.719 4.96601 507.698 5.333 507.656 5.625H507.734C507.99 5.214 508.352 4.89101 508.82 4.65601C509.294 4.41701 509.833 4.297 510.438 4.297C511.484 4.297 512.268 4.547 512.789 5.047C513.315 5.542 513.578 6.331 513.578 7.414V13H512.281ZM519.016 12.086C519.245 12.086 519.466 12.07 519.68 12.039C519.893 12.003 520.062 11.966 520.188 11.93V12.922C520.047 12.99 519.839 13.044 519.562 13.086C519.292 13.133 519.047 13.156 518.828 13.156C517.172 13.156 516.344 12.284 516.344 10.539V5.44501H515.117V4.82001L516.344 4.28101L516.891 2.453H517.641V4.43799H520.125V5.44501H517.641V10.484C517.641 11 517.763 11.396 518.008 11.672C518.253 11.948 518.589 12.086 519.016 12.086ZM527.586 8.25V13H526.258V1.578H529.391C530.792 1.578 531.826 1.846 532.492 2.383C533.164 2.919 533.5 3.72699 533.5 4.80499C533.5 6.31499 532.734 7.336 531.203 7.867L534.305 13H532.734L529.969 8.25H527.586ZM527.586 7.10901H529.406C530.344 7.10901 531.031 6.92399 531.469 6.55499C531.906 6.17999 532.125 5.62 532.125 4.875C532.125 4.12 531.901 3.576 531.453 3.242C531.01 2.909 530.297 2.742 529.312 2.742H527.586V7.10901ZM539.57 13.156C538.305 13.156 537.305 12.771 536.57 12C535.841 11.229 535.477 10.159 535.477 8.789C535.477 7.409 535.815 6.312 536.492 5.5C537.174 4.688 538.089 4.28101 539.234 4.28101C540.307 4.28101 541.156 4.63499 541.781 5.34399C542.406 6.04699 542.719 6.977 542.719 8.133V8.953H536.82C536.846 9.958 537.099 10.721 537.578 11.242C538.062 11.763 538.742 12.023 539.617 12.023C540.539 12.023 541.451 11.831 542.352 11.445V12.602C541.893 12.799 541.458 12.94 541.047 13.023C540.641 13.112 540.148 13.156 539.57 13.156ZM539.219 5.367C538.531 5.367 537.982 5.591 537.57 6.039C537.164 6.487 536.924 7.10701 536.852 7.89801H541.328C541.328 7.08101 541.146 6.45601 540.781 6.02301C540.417 5.58601 539.896 5.367 539.219 5.367ZM550.461 10.664C550.461 11.461 550.164 12.076 549.57 12.508C548.977 12.94 548.143 13.156 547.07 13.156C545.935 13.156 545.049 12.977 544.414 12.617V11.414C544.826 11.622 545.266 11.786 545.734 11.906C546.208 12.026 546.664 12.086 547.102 12.086C547.779 12.086 548.299 11.979 548.664 11.766C549.029 11.547 549.211 11.216 549.211 10.773C549.211 10.44 549.065 10.156 548.773 9.922C548.487 9.682 547.924 9.401 547.086 9.078C546.289 8.781 545.721 8.52299 545.383 8.30499C545.049 8.08099 544.799 7.828 544.633 7.547C544.471 7.266 544.391 6.93 544.391 6.539C544.391 5.841 544.674 5.29199 545.242 4.89099C545.81 4.48399 546.589 4.28101 547.578 4.28101C548.5 4.28101 549.401 4.46899 550.281 4.84399L549.82 5.89801C548.961 5.54401 548.182 5.367 547.484 5.367C546.87 5.367 546.406 5.46401 546.094 5.65601C545.781 5.84901 545.625 6.115 545.625 6.453C545.625 6.682 545.682 6.878 545.797 7.039C545.917 7.201 546.107 7.354 546.367 7.5C546.628 7.646 547.128 7.857 547.867 8.133C548.883 8.503 549.568 8.875 549.922 9.25C550.281 9.625 550.461 10.096 550.461 10.664ZM556.195 13.156C554.93 13.156 553.93 12.771 553.195 12C552.466 11.229 552.102 10.159 552.102 8.789C552.102 7.409 552.44 6.312 553.117 5.5C553.799 4.688 554.714 4.28101 555.859 4.28101C556.932 4.28101 557.781 4.63499 558.406 5.34399C559.031 6.04699 559.344 6.977 559.344 8.133V8.953H553.445C553.471 9.958 553.724 10.721 554.203 11.242C554.688 11.763 555.367 12.023 556.242 12.023C557.164 12.023 558.076 11.831 558.977 11.445V12.602C558.518 12.799 558.083 12.94 557.672 13.023C557.266 13.112 556.773 13.156 556.195 13.156ZM555.844 5.367C555.156 5.367 554.607 5.591 554.195 6.039C553.789 6.487 553.549 7.10701 553.477 7.89801H557.953C557.953 7.08101 557.771 6.45601 557.406 6.02301C557.042 5.58601 556.521 5.367 555.844 5.367ZM565.469 4.28101C565.849 4.28101 566.19 4.312 566.492 4.375L566.312 5.578C565.958 5.5 565.646 5.461 565.375 5.461C564.682 5.461 564.089 5.74199 563.594 6.30499C563.104 6.86699 562.859 7.56801 562.859 8.40601V13H561.562V4.43799H562.633L562.781 6.02301H562.844C563.161 5.46601 563.544 5.03601 563.992 4.73401C564.44 4.43201 564.932 4.28101 565.469 4.28101ZM569.969 13L566.719 4.43799H568.109L569.953 9.51599C570.37 10.703 570.615 11.474 570.688 11.828H570.75C570.807 11.552 570.987 10.982 571.289 10.117C571.596 9.247 572.281 7.35399 573.344 4.43799H574.734L571.484 13H569.969ZM579.727 13.156C578.461 13.156 577.461 12.771 576.727 12C575.997 11.229 575.633 10.159 575.633 8.789C575.633 7.409 575.971 6.312 576.648 5.5C577.331 4.688 578.245 4.28101 579.391 4.28101C580.464 4.28101 581.312 4.63499 581.938 5.34399C582.562 6.04699 582.875 6.977 582.875 8.133V8.953H576.977C577.003 9.958 577.255 10.721 577.734 11.242C578.219 11.763 578.898 12.023 579.773 12.023C580.695 12.023 581.607 11.831 582.508 11.445V12.602C582.049 12.799 581.615 12.94 581.203 13.023C580.797 13.112 580.305 13.156 579.727 13.156ZM579.375 5.367C578.688 5.367 578.138 5.591 577.727 6.039C577.32 6.487 577.081 7.10701 577.008 7.89801H581.484C581.484 7.08101 581.302 6.45601 580.938 6.02301C580.573 5.58601 580.052 5.367 579.375 5.367ZM590.922 11.852H590.852C590.253 12.721 589.357 13.156 588.164 13.156C587.044 13.156 586.172 12.773 585.547 12.008C584.927 11.242 584.617 10.154 584.617 8.742C584.617 7.331 584.93 6.234 585.555 5.453C586.18 4.672 587.049 4.28101 588.164 4.28101C589.326 4.28101 590.216 4.703 590.836 5.547H590.938L590.883 4.92999L590.852 4.328V0.843994H592.148V13H591.094L590.922 11.852ZM588.328 12.07C589.214 12.07 589.854 11.831 590.25 11.352C590.651 10.867 590.852 10.089 590.852 9.01599V8.742C590.852 7.529 590.648 6.66401 590.242 6.14801C589.841 5.62801 589.198 5.367 588.312 5.367C587.552 5.367 586.969 5.664 586.562 6.258C586.161 6.846 585.961 7.68 585.961 8.758C585.961 9.852 586.161 10.677 586.562 11.234C586.964 11.792 587.552 12.07 588.328 12.07Z" fill="black"/>
</svg>
