<svg width="36" height="36" viewBox="0 0 36 36" fill="none" xmlns="http://www.w3.org/2000/svg">
<path d="M18.001 0.544922C13.261 0.544922 12.666 0.565909 10.804 0.650909C8.94602 0.735909 7.67699 1.02991 6.56799 1.46191C5.41999 1.90791 4.44601 2.50391 3.47601 3.47491C2.50501 4.44491 1.908 5.41892 1.461 6.56592C1.029 7.67592 0.734024 8.94492 0.650024 10.8029C0.567024 12.6639 0.544983 13.2599 0.544983 17.9999C0.544983 22.7399 0.566001 23.3329 0.651001 25.1949C0.736001 27.0529 1.02998 28.3219 1.46198 29.4319C1.90798 30.5799 2.50398 31.5529 3.47498 32.5239C4.44398 33.4939 5.418 34.0919 6.565 34.5379C7.676 34.9699 8.945 35.2639 10.802 35.3489C12.664 35.4339 13.259 35.4539 17.999 35.4539C22.739 35.4539 23.332 35.4339 25.19 35.3489C27.05 35.2639 28.32 34.9699 29.43 34.5379C30.58 34.0919 31.55 33.4939 32.52 32.5239C33.49 31.5529 34.09 30.5799 34.54 29.4319C34.97 28.3219 35.26 27.0529 35.35 25.1959C35.43 23.3339 35.45 22.7399 35.45 17.9999C35.45 13.2599 35.43 12.6649 35.35 10.8029C35.26 8.94492 34.97 7.67589 34.54 6.56689C34.09 5.41889 33.49 4.44491 32.52 3.47491C31.55 2.50391 30.58 1.90691 29.43 1.46191C28.32 1.02991 27.05 0.735909 25.19 0.650909C23.33 0.565909 22.737 0.544922 17.995 0.544922H18.001ZM16.435 3.69092C16.9 3.68992 17.418 3.69092 18.001 3.69092C22.661 3.69092 23.213 3.70789 25.05 3.79089C26.76 3.86889 27.68 4.15291 28.29 4.39191C29.11 4.70891 29.69 5.08691 30.3 5.69791C30.91 6.30891 31.29 6.89089 31.61 7.7049C31.85 8.31989 32.13 9.24292 32.21 10.9449C32.29 12.7849 32.31 13.3379 32.31 17.9959C32.31 22.6539 32.29 23.2069 32.21 25.0469C32.13 26.7489 31.85 27.6719 31.61 28.2869C31.29 29.1009 30.91 29.6809 30.3 30.2919C29.69 30.9029 29.11 31.2809 28.29 31.5969C27.68 31.8369 26.76 32.1209 25.05 32.1989C23.214 32.2819 22.661 32.3009 18.001 32.3009C13.34 32.3009 12.788 32.2819 10.948 32.1989C9.246 32.1199 8.32197 31.8359 7.70697 31.5969C6.89197 31.2809 6.31101 30.9029 5.70001 30.2919C5.08901 29.6809 4.71098 29.0999 4.39398 28.2849C4.15498 27.6709 3.86999 26.7469 3.79199 25.0449C3.70899 23.2049 3.69202 22.6529 3.69202 17.9919C3.69202 13.3299 3.70899 12.7809 3.79199 10.9409C3.86999 9.23892 4.15498 8.31492 4.39398 7.69992C4.70998 6.88492 5.08901 6.3039 5.70001 5.6929C6.31101 5.0819 6.89197 4.7039 7.70697 4.3869C8.32197 4.1469 9.246 3.86291 10.948 3.78491C12.558 3.71191 13.182 3.68992 16.435 3.68692V3.69092ZM27.32 6.5889C26.16 6.5889 25.22 7.52592 25.22 8.68292C25.22 9.83892 26.16 10.7769 27.32 10.7769C28.47 10.7769 29.41 9.83892 29.41 8.68292C29.41 7.52692 28.47 6.58792 27.32 6.58792V6.5889ZM18.001 9.03592C13.051 9.03592 9.03699 13.0499 9.03699 17.9999C9.03699 22.9499 13.051 26.9619 18.001 26.9619C22.951 26.9619 26.96 22.9499 26.96 17.9999C26.96 13.0499 22.95 9.03592 18 9.03592H18.001ZM18.001 12.1819C21.214 12.1819 23.819 14.7859 23.819 17.9999C23.819 21.2129 21.214 23.8179 18.001 23.8179C14.787 23.8179 12.183 21.2129 12.183 17.9999C12.183 14.7859 14.787 12.1819 18.001 12.1819Z" fill="#57B2AE"/>
</svg>
