<?xml version="1.0" encoding="utf-8"?>
<!-- Generator: Adobe Illustrator 21.0.0, SVG Export Plug-In . SVG Version: 6.00 Build 0)  -->
<svg version="1.1" id="Layer_1" xmlns="http://www.w3.org/2000/svg" xmlns:xlink="http://www.w3.org/1999/xlink" x="0px" y="0px"
	 viewBox="0 0 515.9 516" style="enable-background:new 0 0 515.9 516;" xml:space="preserve">
<style type="text/css">
	.st0{fill:#0abab5;}
	.st1{fill:none;stroke:#FFFFFF;stroke-width:1.5;stroke-miterlimit:10;}
	.st2{fill:#FFFFFF;}
</style>
<g id="Circles">
	<g>
		<path class="st0" d="M258.1,0C115.6-0.1,0,115.5,0,258c0,142.4,114.6,257.5,257,258c46.7,0.2,88.2-10.9,126.1-32.4
			c3.9-2,5.2-5.9,3.2-9.9c-2-3.9-5.9-6.5-9.8-4.5c-36.1,20.8-75.7,31.4-120.4,31.1C122.6,499.2,15.7,391.4,15.7,258
			c0-133.9,108.6-242.4,242.4-242.3c133.3,0.1,242,108.9,242.1,242.2c0,45.5-9.1,78.7-30.9,115c-0.7,1.2-1.5,2.5-2.3,3.7
			c-2.1,3.8-0.3,7.8,3.7,9.6c4,1.8,8.5,0.7,10.8-3.1c0.9-1.5,1.9-3,2.8-4.6c22.2-38,31.5-72.8,31.6-119.9
			C516.4,115.5,401.3,0.1,258.1,0z"/>
	</g>
	<path class="st0" d="M109.9,195.1c1.7-4.4-0.5-9.2-4.8-10.9c-4.4-1.8-9.6,1.9-11.3,6.3l2.6,3.9l12.6,1.7L109.9,195.1z"/>
	<path class="st0" d="M258,80.4c-23.6,0-46.1,4.6-66.7,13c-0.7,0.3-1.3,0.6-2,0.9c-4.4,1.8-6.5,6.2-4.9,10.7
		c1.6,4.4,7.9,6.1,12.3,4.4c0.6-0.3,1.3-0.5,1.9-0.8c18.4-7.3,38.5-11.4,59.5-11.4c88.9,0,160.9,72,160.9,160.9S347,419,258.1,419
		S97.2,347,97.2,258.1c0-21.6,4.3-42.3,12-61.1c0.2-0.6,0.5-1.2,0.8-1.8c-2-0.4-4-1-6.1-1.6c-3.4-1-6.7-2-10.1-3
		c-0.3,0.7-0.6,1.4-0.8,2.1C85,213,80.5,235,80.5,258.2c0,98.1,79.5,177.6,177.6,177.6S435.6,356.1,435.6,258S356.1,80.4,258,80.4z"
		/>
	<path class="st0" d="M433.6,392.5c-23.8,0-43.1,19.3-43.1,43.1s19.3,43.1,43.1,43.1s43.1-19.3,43.1-43.1S457.4,392.5,433.6,392.5z
		 M433.6,462.5c-14.9,0-26.9-12-26.9-26.9s12-26.9,26.9-26.9s26.9,12,26.9,26.9S448.5,462.5,433.6,462.5z"/>
	<circle class="st0" cx="139.7" cy="138.4" r="43.8"/>
	<circle class="st1" cx="139.7" cy="138.4" r="27"/>
	<circle class="st2" cx="433.6" cy="435.6" r="27.4"/>
</g>
<g id="House">
	<path class="st0" d="M335.1,246.8l3.9-3.9l-72.2-73.6l0,0l0,0h-13.1l-72.2,73.6l3.9,3.9l13.1-13.1v97.8l-0.8,2.3h42.5h0.3l0,0h0.5
		h1v-54.9c0-10.1,8.1-18.3,18.2-18.5c10.1,0.1,18.3,8.3,18.3,18.5v54.9h1H322l0,0h0.8l-0.8-2.3v-97.8L335.1,246.8z"/>
</g>
</svg>
