<svg width="32" height="28" viewBox="0 0 32 28" fill="none" xmlns="http://www.w3.org/2000/svg">
<path fill-rule="evenodd" clip-rule="evenodd" d="M28.3199 7.15198C28.3299 7.45198 28.34 7.75196 28.34 8.05096C28.34 17.141 21.94 27.634 10.25 27.634C6.66 27.634 3.32001 26.489 0.51001 24.541C1.00001 24.595 1.51002 24.636 2.02002 24.636C5.00002 24.636 7.74004 23.532 9.92004 21.679C7.14004 21.638 4.78998 19.635 3.97998 16.909C4.36998 16.991 4.77005 17.032 5.18005 17.032C5.75005 17.032 6.31998 16.95 6.84998 16.787C3.93998 16.16 1.75 13.38 1.75 10.041C1.75 9.99995 1.75 9.98698 1.75 9.95898C2.61 10.464 3.59 10.777 4.63 10.818C2.92 9.57796 1.80005 7.46596 1.80005 5.08096C1.80005 3.82696 2.11003 2.64096 2.66003 1.61896C5.80003 5.78896 10.48 8.52797 15.77 8.81497C15.66 8.30997 15.6 7.77896 15.6 7.24796C15.6 3.44596 18.45 0.365967 21.96 0.365967C23.79 0.365967 25.44 1.19696 26.6 2.53296C28.05 2.23296 29.41 1.65996 30.64 0.869965C30.16 2.47796 29.16 3.82697 27.84 4.67197C29.13 4.50797 30.36 4.14098 31.49 3.59598C30.64 4.97198 29.5599 6.18498 28.3199 7.15198Z" fill="#57B2AE"/>
</svg>
