<svg width="36" height="26" viewBox="0 0 36 26" fill="none" xmlns="http://www.w3.org/2000/svg">
<path fill-rule="evenodd" clip-rule="evenodd" d="M32.09 0.770996C33.63 1.186 34.84 2.402 35.26 3.944C36.03 6.761 36 12.633 36 12.633C36 12.633 36 18.474 35.26 21.292C34.84 22.834 33.63 24.049 32.09 24.464C29.27 25.206 18 25.206 18 25.206C18 25.206 6.76003 25.206 3.91003 24.435C2.37003 24.02 1.15999 22.804 0.73999 21.262C-9.77516e-06 18.474 0 12.603 0 12.603C0 12.603 -9.77516e-06 6.761 0.73999 3.944C1.15999 2.402 2.40003 1.157 3.91003 0.740997C6.73003 -2.68221e-06 18 0 18 0C18 0 29.27 -3.93391e-06 32.09 0.770996ZM23.78 12.397L14.41 17.794V7L23.78 12.397Z" fill="#57B2AE"/>
</svg>
